<svg width="20" height="20" viewBox="0 0 20 20" fill="none" xmlns="http://www.w3.org/2000/svg">
<g clip-path="url(#clip0_1505_10)">
<path d="M6.25012 18.75C6.94048 18.75 7.50012 18.1904 7.50012 17.5C7.50012 16.8096 6.94048 16.25 6.25012 16.25C5.55977 16.25 5.00012 16.8096 5.00012 17.5C5.00012 18.1904 5.55977 18.75 6.25012 18.75Z" fill="#C73B0F"/>
<path d="M15.0001 18.75C15.6905 18.75 16.2501 18.1904 16.2501 17.5C16.2501 16.8096 15.6905 16.25 15.0001 16.25C14.3098 16.25 13.7501 16.8096 13.7501 17.5C13.7501 18.1904 14.3098 18.75 15.0001 18.75Z" fill="#C73B0F"/>
<path d="M3.11262 1.7525C3.08431 1.61087 3.00782 1.48341 2.89616 1.3918C2.7845 1.3002 2.64455 1.25009 2.50012 1.25H0.00012207V2.5H1.98762L4.38762 14.4975C4.41593 14.6391 4.49242 14.7666 4.60408 14.8582C4.71574 14.9498 4.85569 14.9999 5.00012 15H16.2501V13.75H5.51262L5.01262 11.25H16.2501C16.3923 11.25 16.5302 11.2015 16.6411 11.1125C16.752 11.0235 16.8293 10.8994 16.8601 10.7606L18.2776 4.375H16.9982L15.7489 10H4.76262L3.11262 1.7525Z" fill="#C73B0F"/>
<path d="M11.2501 3.75V1.25H10.0001V3.75H7.50012V5H10.0001V7.5H11.2501V5H13.7501V3.75H11.2501Z" fill="#C73B0F"/>
</g>
<defs>
<clipPath id="clip0_1505_10">
<rect width="20" height="20" fill="white"/>
</clipPath>
</defs>
</svg>
